/* XPM */
static const char * home_xpm[] = {
"14 16 3 1",
" 	c None",
".	c #000000",
"+	c #DDDDDD",
"              ",
"              ",
"              ",
"      ..+     ",
"     ....+    ",
"    ......+   ",
"   ........+  ",
"  ..........+ ",
"   ........+  ",
"   ........+  ",
"   ...+ ...+  ",
"   ...+ ...+  ",
"   ...+ ...+  ",
"              ",
"              ",
"              "};
