/* XPM */
static const char * reload_xpm[] = {
"14 16 40 1",
" 	c None",
".	c #000000",
"+	c #000100",
"@	c #010101",
"#	c #191A19",
"$	c #2C2C2C",
"%	c #252525",
"&	c #060606",
"*	c #010201",
"=	c #232422",
"-	c #666865",
";	c #A7A8A7",
">	c #999A99",
",	c #1C1C1C",
"'	c #1B1D1A",
")	c #020202",
"!	c #0D0E0D",
"~	c #242523",
"{	c #2C2E2C",
"]	c #2F312F",
"^	c #3C3D3C",
"/	c #444544",
"(	c #4F504F",
"_	c #4D4D4D",
":	c #1F1F1F",
"<	c #7B807B",
"[	c #3B3D3B",
"}	c #040504",
"|	c #858884",
"1	c #0A0A0A",
"2	c #3B3C3B",
"3	c #B3B6B3",
"4	c #303030",
"5	c #171716",
"6	c #BBBBBB",
"7	c #797A78",
"8	c #2A2C29",
"9	c #0D0E0C",
"0	c #262726",
"a	c #575956",
"              ",
"              ",
"          .   ",
"    .....+@.  ",
"   ..#$%&+*.  ",
"  ..=-;>,.+.  ",
" ').    !.... ",
" ~).   {]^/(_ ",
" :.@    <     ",
" [}.          ",
" |1.          ",
"  2..   ..    ",
"  34.....5    ",
"   67890a     ",
"              ",
"              "};
