/* XPM */
static char * star_xpm[] = {
"17 16 33 1",
" 	c None",
".	c #313131",
"+	c #2A2A2A",
"@	c #191919",
"#	c #2C2C2C",
"$	c #202020",
"%	c #000000",
"&	c #232323",
"*	c #2F2F2F",
"=	c #090909",
"-	c #0B0B0B",
";	c #303030",
">	c #1F1F1F",
",	c #212121",
"'	c #0F0F0F",
")	c #080808",
"!	c #010101",
"~	c #252525",
"{	c #070707",
"]	c #272727",
"^	c #020202",
"/	c #323232",
"(	c #333333",
"_	c #040404",
":	c #282828",
"<	c #1D1D1D",
"[	c #1A1A1A",
"}	c #242424",
"|	c #1E1E1E",
"1	c #373737",
"2	c #181818",
"3	c #1C1C1C",
"4	c #2B2B2B",
"                 ",
"        .        ",
"       +@#       ",
"       $%&       ",
"      *=%-.      ",
"  .;;;>%%%,.;;   ",
" .>')!%%%%%%)'$. ",
"  ~{%%%%%%%%%=]  ",
"   +{%%%%%%%=+   ",
"    *%%%%%%^*    ",
"    /%%%%%%^(    ",
"    ]%%%_%%^:    ",
"    <%)[}@{%|    ",
"   1234   +3[    ",
"   (.      /.(   ",
"                 "};
