/* XPM */
static const char * TikBew32_xpm[] = {
"32 32 717 2",
"  	c None",
". 	c #9FCEE2",
"+ 	c #92C5D9",
"@ 	c #8DBFD4",
"# 	c #86BACE",
"$ 	c #83B3C7",
"% 	c #7DABBC",
"& 	c #80A7B7",
"* 	c #BCE8FB",
"= 	c #A2DEF6",
"- 	c #8DD2EC",
"; 	c #82C8E4",
"> 	c #79C1DC",
", 	c #73BCD8",
"' 	c #6DB8D4",
") 	c #6CB6D1",
"! 	c #6DB4CF",
"~ 	c #6CB3CC",
"{ 	c #73B2CA",
"] 	c #7BACBF",
"^ 	c #71919D",
"/ 	c #CDF2FF",
"( 	c #B8EAFA",
"_ 	c #A7DEEF",
": 	c #9BD5EA",
"< 	c #8CCFEA",
"[ 	c #7ECAE7",
"} 	c #78C4E2",
"| 	c #72C0DC",
"1 	c #6BBBD9",
"2 	c #69B8D6",
"3 	c #66B8D4",
"4 	c #66B5D2",
"5 	c #67B3CF",
"6 	c #69B2CD",
"7 	c #6CB1CA",
"8 	c #76A9BD",
"9 	c #556971",
"0 	c #C3ECFF",
"a 	c #B2E7F5",
"b 	c #A9E2EB",
"c 	c #A5DEEA",
"d 	c #A0DAEA",
"e 	c #95D4EA",
"f 	c #85CFEA",
"g 	c #7BCAE6",
"h 	c #73C3E0",
"i 	c #6DBFDB",
"j 	c #69BBD9",
"k 	c #66BAD7",
"l 	c #66B8D5",
"m 	c #65B6D2",
"n 	c #66B3D0",
"o 	c #64B2CF",
"p 	c #67B1CD",
"q 	c #6EAEC5",
"r 	c #516974",
"s 	c #B2E1FC",
"t 	c #ABDFF4",
"u 	c #A9DFEA",
"v 	c #ABE5EA",
"w 	c #AAE4EA",
"x 	c #A4E1EA",
"y 	c #9DDAEA",
"z 	c #91D2EA",
"A 	c #7ECFE9",
"B 	c #78C8E4",
"C 	c #72C2DD",
"D 	c #6CBEDA",
"E 	c #69BCD9",
"F 	c #68BAD8",
"G 	c #67B9D6",
"H 	c #67B7D4",
"I 	c #64B5D2",
"J 	c #64B2D0",
"K 	c #64AFCC",
"L 	c #6CABC4",
"M 	c #44575E",
"N 	c #ACD3EA",
"O 	c #98D5F5",
"P 	c #9FD4EA",
"Q 	c #A7DFEA",
"R 	c #B3E6EA",
"S 	c #B2E6EA",
"T 	c #ACE6EA",
"U 	c #A4E2EA",
"V 	c #99D9EA",
"W 	c #8AD1EA",
"X 	c #7CCCE7",
"Y 	c #74C5E0",
"Z 	c #70C2DC",
"` 	c #6CBFDA",
" .	c #6CBDD9",
"..	c #6ABDD8",
"+.	c #6EBBD5",
"@.	c #7CB9D0",
"#.	c #7BB7CF",
"$.	c #69AFCE",
"%.	c #62A8C6",
"&.	c #6DA6BC",
"*.	c #1E2123",
"=.	c #90C5E6",
"-.	c #88C6E8",
";.	c #9AD1EA",
">.	c #CBE4EA",
",.	c #E6EAEA",
"'.	c #E5EAEA",
").	c #D1E9EA",
"!.	c #ADE6EA",
"~.	c #A1DDEA",
"{.	c #93D5EA",
"].	c #82CFE9",
"^.	c #79C7E3",
"/.	c #74C3DD",
"(.	c #73C0DA",
"_.	c #6FBFDA",
":.	c #85BFD4",
"<.	c #B4C3CD",
"[.	c #BCC3CB",
"}.	c #B9C2CA",
"|.	c #ACBDC7",
"1.	c #73A6C3",
"2.	c #5FA3C3",
"3.	c #5B7889",
"4.	c #9ABCD3",
"5.	c #7EB6DC",
"6.	c #7FBFE3",
"7.	c #BAD4E6",
"8.	c #E6E8EA",
"9.	c #EAEAEA",
"0.	c #D2E8EA",
"a.	c #A4E0EA",
"b.	c #96D6EA",
"c.	c #85D1E9",
"d.	c #7DCAE4",
"e.	c #77C4DE",
"f.	c #77C2DB",
"g.	c #85C1D6",
"h.	c #BEC6CF",
"i.	c #C1C5CD",
"j.	c #BDC3CC",
"k.	c #BCC2CA",
"l.	c #B9C0C8",
"m.	c #A7B8C3",
"n.	c #64A2C2",
"o.	c #6A9DB9",
"p.	c #020202",
"q.	c #7CABCF",
"r.	c #70AAD1",
"s.	c #92BAD7",
"t.	c #C6CBD7",
"u.	c #8AA0B5",
"v.	c #8DA4B7",
"w.	c #C3CED6",
"x.	c #E9E9E9",
"y.	c #C3E5EA",
"z.	c #99D7EA",
"A.	c #89D2E9",
"B.	c #7ECBE4",
"C.	c #79C5DF",
"D.	c #77C3DA",
"E.	c #B2C5D1",
"F.	c #C4C7CF",
"G.	c #8A9EAE",
"H.	c #4B6B84",
"I.	c #637E94",
"J.	c #B0BBC4",
"K.	c #B7BBC5",
"L.	c #8AACC1",
"M.	c #5D9BBE",
"N.	c #444F55",
"O.	c #6A9CC9",
"P.	c #67A2CB",
"Q.	c #B4BFCF",
"R.	c #5E7391",
"S.	c #446183",
"T.	c #567393",
"U.	c #6887A2",
"V.	c #D5DBDF",
"W.	c #DBE8EA",
"X.	c #97D7EA",
"Y.	c #7ECBE5",
"Z.	c #78C5DF",
"`.	c #7EC2DA",
" +	c #C2C6CF",
".+	c #A3B0BC",
"++	c #184060",
"@+	c #173D5E",
"#+	c #173B5C",
"$+	c #4C6985",
"%+	c #B8BEC8",
"&+	c #A7B3C2",
"*+	c #5B9CC1",
"=+	c #5E7D92",
"-+	c #000000",
";+	c #90A9C0",
">+	c #5F92C1",
",+	c #679CC3",
"'+	c #AEAFBF",
")+	c #2E4C71",
"!+	c #355476",
"~+	c #436283",
"{+	c #527291",
"]+	c #99AFBF",
"^+	c #DAE6EA",
"/+	c #86D1E9",
"(+	c #7DCAE5",
"_+	c #75C3DE",
":+	c #89C2D7",
"<+	c #C6CAD1",
"[+	c #637D93",
"}+	c #173A5C",
"|+	c #163B5C",
"1+	c #15385B",
"2+	c #B0B7C3",
"3+	c #B3B8C3",
"4+	c #5E9EC0",
"5+	c #608EAE",
"6+	c #141614",
"7+	c #789BBB",
"8+	c #558ABA",
"9+	c #719BBE",
"0+	c #AEB2BF",
"a+	c #234367",
"b+	c #2A496E",
"c+	c #345475",
"d+	c #405F80",
"e+	c #7492A8",
"f+	c #E4E7EA",
"g+	c #CCE0EA",
"h+	c #8DD3EA",
"i+	c #81CFE9",
"j+	c #73C2DD",
"k+	c #8BC1D5",
"l+	c #C6C9D1",
"m+	c #59718A",
"n+	c #17395C",
"o+	c #AEB6C2",
"p+	c #B6BAC4",
"q+	c #69A2BF",
"r+	c #80A8B5",
"s+	c #8FA392",
"t+	c #ABC4B0",
"u+	c #648DB6",
"v+	c #4D83B5",
"w+	c #7B9BBC",
"x+	c #C1C3CD",
"y+	c #324F6F",
"z+	c #214267",
"A+	c #28496C",
"B+	c #305173",
"C+	c #638098",
"D+	c #D9DCE5",
"E+	c #BED9E6",
"F+	c #80CFE9",
"G+	c #7BC9E6",
"H+	c #73C3DF",
"I+	c #6EBEDB",
"J+	c #80BDD4",
"K+	c #C1C5CE",
"L+	c #8492A4",
"M+	c #14385A",
"N+	c #163A5C",
"O+	c #1F3E60",
"P+	c #B0B8C3",
"Q+	c #C2CACC",
"R+	c #84B4A2",
"S+	c #3B9152",
"T+	c #63A76E",
"U+	c #9CBCA2",
"V+	c #5481B3",
"W+	c #497CAF",
"X+	c #7292B5",
"Y+	c #C3C3CC",
"Z+	c #7C8BA1",
"`+	c #1E3E62",
" @	c #214165",
".@	c #335373",
"+@	c #B1BAC7",
"@@	c #CDD0DA",
"#@	c #B8CFDD",
"$@	c #75C6E5",
"%@	c #70C0E1",
"&@	c #6CBCDA",
"*@	c #68B9D7",
"=@	c #6BB8D5",
"-@	c #BAC2CC",
";@	c #B6BAC6",
">@	c #30506D",
",@	c #173A5D",
"'@	c #5A7188",
")@	c #B6C9BD",
"!@	c #74AD7E",
"~@	c #349043",
"{@	c #087A19",
"]@	c #4B9959",
"^@	c #93A996",
"/@	c #4C7CAF",
"(@	c #487CAE",
"_@	c #5784B0",
":@	c #B4B3BD",
"<@	c #BFC3CB",
"[@	c #ADB4C1",
"}@	c #A1AAB9",
"|@	c #B9BFCA",
"1@	c #C3C8D1",
"2@	c #C6CAD2",
"3@	c #95C7DA",
"4@	c #6BBDDD",
"5@	c #67B8DA",
"6@	c #65B8D7",
"7@	c #61B7D6",
"8@	c #5EB4D3",
"9@	c #AABDCB",
"0@	c #BEC2CC",
"a@	c #A2ACB9",
"b@	c #A2AFB8",
"c@	c #97B8A3",
"d@	c #58A264",
"e@	c #1A832B",
"f@	c #097A1A",
"g@	c #067A18",
"h@	c #62A46D",
"i@	c #93A095",
"j@	c #487BB1",
"k@	c #467BAF",
"l@	c #457DB1",
"m@	c #99A1B4",
"n@	c #B7B7C2",
"o@	c #BBBFC9",
"p@	c #BFC3CD",
"q@	c #C0C3CC",
"r@	c #C1C4CE",
"s@	c #74BDD9",
"t@	c #63B6D8",
"u@	c #62B5D5",
"v@	c #5FB3D2",
"w@	c #5EB2D2",
"x@	c #5CB3D2",
"y@	c #B0BFCA",
"z@	c #C6CAD0",
"A@	c #C5CFCC",
"B@	c #92BC99",
"C@	c #3E954C",
"D@	c #0B7B1D",
"E@	c #0D7D1F",
"F@	c #127E22",
"G@	c #0C7C1D",
"H@	c #60A16C",
"I@	c #818C83",
"J@	c #7A93B2",
"K@	c #4678AF",
"L@	c #457AAF",
"M@	c #477DB1",
"N@	c #6A8AB1",
"O@	c #AFAEBA",
"P@	c #B5B7C2",
"Q@	c #B8BCC6",
"R@	c #BCBFC8",
"S@	c #B8C1CB",
"T@	c #87BBD1",
"U@	c #61B4D6",
"V@	c #5EB4D4",
"W@	c #5EB3D3",
"X@	c #5CB1D1",
"Y@	c #5CB0D1",
"Z@	c #5BB2D1",
"`@	c #5BB1D0",
" #	c #68B3CF",
".#	c #B1C9C8",
"+#	c #8CBB94",
"@#	c #2A8A39",
"##	c #077A17",
"$#	c #158025",
"%#	c #147F24",
"&#	c #077918",
"*#	c #489656",
"=#	c #6D8170",
"-#	c #6E8CB0",
";#	c #457BAE",
">#	c #487CAF",
",#	c #7D96B6",
"'#	c #AAB4C3",
")#	c #A1B9C9",
"!#	c #8BB7CF",
"~#	c #6CB4D2",
"{#	c #5CB1D5",
"]#	c #5DB2D3",
"^#	c #5CB2D2",
"/#	c #5BB2D2",
"(#	c #59B0D0",
"_#	c #5AB0D0",
":#	c #5BB1D2",
"<#	c #5DB1D0",
"[#	c #73B9C6",
"}#	c #67AC86",
"|#	c #2E8C3B",
"1#	c #077A18",
"2#	c #137E24",
"3#	c #0C7C1E",
"4#	c #047717",
"5#	c #41964E",
"6#	c #6A886F",
"7#	c #6986B0",
"8#	c #4678AE",
"9#	c #457AAE",
"0#	c #477BAF",
"a#	c #497DB0",
"b#	c #4B84B7",
"c#	c #5C98C2",
"d#	c #58A8CC",
"e#	c #61B0D2",
"f#	c #77BBD6",
"g#	c #74BAD6",
"h#	c #73B9D4",
"i#	c #62B2D2",
"j#	c #59B0D1",
"k#	c #58AFD0",
"l#	c #7BBCCD",
"m#	c #7FB792",
"n#	c #2D8C3B",
"o#	c #077A19",
"p#	c #137F23",
"q#	c #148025",
"r#	c #107E20",
"s#	c #0C7D1D",
"t#	c #238932",
"u#	c #4A9957",
"v#	c #6BA283",
"w#	c #46584A",
"x#	c #6283AD",
"y#	c #4677AF",
"z#	c #457AB2",
"A#	c #467CB0",
"B#	c #477BB0",
"C#	c #4884B8",
"D#	c #4E97C3",
"E#	c #60ACCE",
"F#	c #8AC0CF",
"G#	c #A5CCC9",
"H#	c #8DC0BA",
"I#	c #A7CDD2",
"J#	c #73B9D3",
"K#	c #58AFD2",
"L#	c #58AFD1",
"M#	c #5EB1D2",
"N#	c #82BFCF",
"O#	c #9DC5AB",
"P#	c #0B7B1C",
"Q#	c #0F7D20",
"R#	c #168026",
"S#	c #3B9449",
"T#	c #6AA582",
"U#	c #98B7B8",
"V#	c #7998B7",
"W#	c #080909",
"X#	c #597CAE",
"Y#	c #4478AD",
"Z#	c #457BB0",
"`#	c #477DB0",
" $	c #5887B7",
".$	c #6192BB",
"+$	c #559BBB",
"@$	c #80B9BA",
"#$	c #96C0A1",
"$$	c #509F5D",
"%$	c #278A39",
"&$	c #91BE9C",
"*$	c #80BCCA",
"=$	c #5DB1D2",
"-$	c #5CB0D2",
";$	c #87C1D4",
">$	c #B0CEBA",
",$	c #329041",
"'$	c #117E22",
")$	c #0C7E1E",
"!$	c #218630",
"~$	c #64A773",
"{$	c #A1C0B9",
"]$	c #5F8BB0",
"^$	c #4174A9",
"/$	c #3D6FA2",
"($	c #090B0C",
"_$	c #5179AD",
":$	c #4579AD",
"<$	c #457BB2",
"[$	c #5184B5",
"}$	c #91AEC5",
"|$	c #9BBCB8",
"1$	c #73AD87",
"2$	c #369148",
"3$	c #168126",
"4$	c #0B7C1C",
"5$	c #2F8D40",
"6$	c #95C2B1",
"7$	c #7BBDD4",
"8$	c #75BBD5",
"9$	c #9EC7BF",
"0$	c #4E9E5C",
"a$	c #107E22",
"b$	c #0E7E1F",
"c$	c #2F8D3E",
"d$	c #82B893",
"e$	c #A6C3CC",
"f$	c #638EB4",
"g$	c #4275AA",
"h$	c #3B73A9",
"i$	c #3A6CA5",
"j$	c #101216",
"k$	c #4C78AF",
"l$	c #447AB0",
"m$	c #5185B4",
"n$	c #8AB0B0",
"o$	c #4B9A5D",
"p$	c #188227",
"q$	c #0B7B1B",
"r$	c #0A7B1B",
"s$	c #60A66C",
"t$	c #6CB4B7",
"u$	c #7EBCC7",
"v$	c #82B78B",
"w$	c #0D7E1F",
"x$	c #107E21",
"y$	c #0F7E20",
"z$	c #0E7D20",
"A$	c #419752",
"B$	c #8EBEA8",
"C$	c #94C2D0",
"D$	c #5C96C1",
"E$	c #4A7BAC",
"F$	c #3F73A6",
"G$	c #3A73AC",
"H$	c #396DA4",
"I$	c #191D22",
"J$	c #4A78B1",
"K$	c #447CB1",
"L$	c #437DB3",
"M$	c #5285B7",
"N$	c #96B3C5",
"O$	c #99BAB7",
"P$	c #76AE8A",
"Q$	c #0F7E21",
"R$	c #0D7C1F",
"S$	c #127E23",
"T$	c #198328",
"U$	c #6FAE85",
"V$	c #83B896",
"W$	c #318F40",
"X$	c #0C7D1E",
"Y$	c #5DA56A",
"Z$	c #76B6AC",
"`$	c #67B3CC",
" %	c #62ACCF",
".%	c #4A8ABB",
"+%	c #497AAC",
"@%	c #3D74AC",
"#%	c #3A74AB",
"$%	c #386DA5",
"%%	c #23282F",
"&%	c #497CB4",
"*%	c #447FB7",
"=%	c #437DB4",
"-%	c #467EB1",
";%	c #5C88B7",
">%	c #6691BC",
",%	c #5C9ABA",
"'%	c #7CB6B7",
")%	c #7FB68F",
"!%	c #2E8D3C",
"~%	c #0A7C1B",
"{%	c #278A36",
"]%	c #2C8B3A",
"^%	c #0C7D1F",
"/%	c #6BAB76",
"(%	c #75B6B4",
"_%	c #62B1CE",
":%	c #5DAECF",
"<%	c #57A6CC",
"[%	c #4989B9",
"}%	c #477BAD",
"|%	c #3C76AD",
"1%	c #3A75AC",
"2%	c #3870A8",
"3%	c #292F38",
"4%	c #477EB8",
"5%	c #4383B8",
"6%	c #427FB7",
"7%	c #437DB2",
"8%	c #467DB2",
"9%	c #4D8FBE",
"0%	c #63ACCF",
"a%	c #88C0CD",
"b%	c #9DC6B6",
"c%	c #6EAC7A",
"d%	c #1B842D",
"e%	c #178228",
"f%	c #71AE7D",
"g%	c #73B5BB",
"h%	c #5FAFCE",
"i%	c #5AAECF",
"j%	c #5AADCF",
"k%	c #55A6CC",
"l%	c #4788B9",
"m%	c #3E78AF",
"n%	c #3978AD",
"o%	c #3973AB",
"p%	c #2D3641",
"q%	c #4582BD",
"r%	c #4085B9",
"s%	c #4081B8",
"t%	c #427FB6",
"u%	c #457CB1",
"v%	c #487DB4",
"w%	c #4B90BF",
"x%	c #55A7CC",
"y%	c #63B2D0",
"z%	c #7EBDD5",
"A%	c #76B8BF",
"B%	c #7EB697",
"C%	c #379245",
"D%	c #067917",
"E%	c #1E852E",
"F%	c #61A774",
"G%	c #73B5BE",
"H%	c #5CAECF",
"I%	c #59ACCF",
"J%	c #5BAECF",
"K%	c #56A5CA",
"L%	c #4A8AB8",
"M%	c #477EB1",
"N%	c #3F7BB2",
"O%	c #3A79B1",
"P%	c #3977AE",
"Q%	c #343F4D",
"R%	c #4487C1",
"S%	c #3F84B8",
"T%	c #3C80B7",
"U%	c #3F7EB6",
"V%	c #457EB2",
"W%	c #497FB3",
"X%	c #4B92C0",
"Y%	c #55A8CC",
"Z%	c #5CAFCF",
"`%	c #5DAFCF",
" &	c #7EBCCF",
".&	c #91C0AB",
"+&	c #4D9C5A",
"@&	c #178229",
"#&	c #5FA56C",
"$&	c #A1C8C5",
"%&	c #60AECF",
"&&	c #57ACCF",
"*&	c #5AACCE",
"=&	c #56A6CB",
"-&	c #4D8ABA",
";&	c #4B82B2",
">&	c #4479A9",
",&	c #3873A9",
"'&	c #3777AD",
")&	c #364453",
"!&	c #4B77A7",
"~&	c #355779",
"{&	c #2C4259",
"]&	c #314257",
"^&	c #48698D",
"/&	c #4A81B4",
"(&	c #4C93C0",
"_&	c #57A8CD",
":&	c #5CADCF",
"<&	c #5BACCF",
"[&	c #86BED3",
"}&	c #88BCAF",
"|&	c #7DB592",
"1&	c #94C2B8",
"2&	c #80BDD5",
"3&	c #59AACC",
"4&	c #59A7CC",
"5&	c #4F8CBA",
"6&	c #465F7A",
"7&	c #0D0F11",
"8&	c #2A3442",
"9&	c #2A3D56",
"0&	c #14171B",
"a&	c #628DB9",
"b&	c #4D94C2",
"c&	c #59A9CC",
"d&	c #5CADCE",
"e&	c #5CACCF",
"f&	c #59ADCF",
"g&	c #59ACCE",
"h&	c #5CA2C4",
"i&	c #7197AB",
"j&	c #83969E",
"k&	c #718792",
"l&	c #528199",
"m&	c #5B99BA",
"n&	c #58A5CA",
"o&	c #5AACCF",
"p&	c #5BADCF",
"q&	c #5DADCF",
"r&	c #57A7CC",
"s&	c #5891BA",
"t&	c #16181C",
"u&	c #5C9BC3",
"v&	c #5CA4C4",
"w&	c #5BA7C9",
"x&	c #569BBE",
"y&	c #4F7A94",
"z&	c #30404F",
"A&	c #111113",
"B&	c #4C718B",
"C&	c #568EAE",
"D&	c #5C9DBE",
"E&	c #5D94B3",
"F&	c #334654",
"G&	c #242D37",
"H&	c #131518",
"                        . + @ # $ % &                           ",
"                  * = - ; > , ' ) ! ~ { ] ^                     ",
"              / ( _ : < [ } | 1 2 3 4 5 6 7 8 9                 ",
"            0 a b c d e f g h i j k l m n o p q r               ",
"          s t u v w x y z A B C D E F G H I J K L M             ",
"        N O P Q R S T U V W X Y Z `  ...+.@.#.$.%.&.*.          ",
"        =.-.;.>.,.'.).!.~.{.].^./.(._.:.<.[.}.|.1.2.3.          ",
"      4.5.6.7.8.9.9.9.0.a.b.c.d.e.f.g.h.i.j.k.l.m.n.o.p.        ",
"      q.r.s.t.u.v.w.x.9.y.z.A.B.C.D.E.F.G.H.I.J.K.L.M.N.        ",
"      O.P.Q.R.S.T.U.V.9.W.X.A.Y.Z.`. +.+++@+#+$+%+&+*+=+-+      ",
"    ;+>+,+'+)+!+~+{+]+9.^+b./+(+_+:+<+[+@+}+|+1+2+3+4+5+6+      ",
"    7+8+9+0+a+b+c+d+e+f+g+h+i+^.j+k+l+m+}+}+}+n+o+p+q+r+s+t+    ",
"    u+v+w+x+y+z+A+B+C+D+E+F+G+H+I+J+K+L+M+N+n+O+P+Q+R+S+T+U+    ",
"    V+W+X+Y+Z+`+ @.@+@@@#@$@%@&@*@=@-@;@>@,@n+'@)@!@~@{@]@^@    ",
"    /@(@_@:@<@[@}@|@1@2@3@4@5@6@7@8@9@0@P+a@b@c@d@e@f@g@h@i@    ",
"    j@k@l@m@n@o@<@p@q@r@s@t@u@v@w@x@o y@z@A@B@C@D@E@F@G@H@I@    ",
"  J@K@L@M@N@O@P@Q@R@S@T@U@V@W@X@Y@Z@`@ #.#+#@###F@$#%#&#*#=#    ",
"  -#K@;#>#M@,#'#)#!#~#{#]#^#/#(#_#:#<#[#}#|#1#%#$#2#3#4#5#6#    ",
"  7#8#9#0#a#b#c#d#e#f#g#h#i#j#k#j#X@l#m#n#o#p#q#r#s#t#u#v#w#    ",
"  x#y#z#A#B#C#D#E#F#G#H#I#J#K#L#M#N#O#|#P#p#p#Q#R#S#T#U#V#W#    ",
"  X#Y#Z#`# $.$+$@$#$$$%$&$*$=$-$;$>$,$G@'$'$)$!$~${$]$^$/$($    ",
"  _$:$<$[$}$|$1$2$3$4$P#5$6$7$8$9$0$3#a$'$b$c$d$e$f$g$h$i$j$    ",
"  k$l$l@m$n$o$p$q$E@a$'$r$s$t$u$v$w$x$y$z$A$B$C$D$E$F$G$H$I$    ",
"  J$K$L$M$N$O$P$2$Q$R$S$Q$T$U$V$W$D@Q#X$Y$Z$`$ %.%+%@%#%$%%%    ",
"  &%*%=%-%;%>%,%'%)%!%~%Q#Q${%]%%#E@^%/%(%_%:%<%[%}%|%1%2%3%    ",
"  4%5%6%7%L@8%9%0%a%b%c%d%4$b$'$G@e%f%g%h%i%j%k%l%k@m%n%o%p%    ",
"  q%r%s%t%u%v%w%x%y%z%A%B%C%X$D%E%F%G%H%I%j%J%K%L%M%N%O%P%Q%    ",
"  R%S%T%U%V%W%X%Y%H%Z%`% &.&+&@&#&$&%&&&*&j%H%=&-&;&>&,&'&)&    ",
"  !&~&{&]&^&/&(&_&Z%H%:&<&[&}&|&1&2&<&3&I%:&:&4&5&6&7&8&9&0&    ",
"            a&b&c&d&e&f&g&h&i&j&k&l&m&n&o&p&q&r&s&t&            ",
"              u&v&w&x&y&z&A&            B&C&D&E&F&-+            ",
"                  G&H&                                          "};
